<svg xmlns="http://www.w3.org/2000/svg" viewBox="0 0 24 6"><title>Plan de travail 1-1000</title><path d="M1.54,5l.3,0A2.48,2.48,0,0,1,2.61,5a1.65,1.65,0,0,0,.7,0,3.52,3.52,0,0,1,1.21,0,6.24,6.24,0,0,0,1.78,0,7,7,0,0,1,.8,0l.58,0C7.79,5,7.89,5,8,5c.51,0,1,0,1.51-.08s.84,0,1.25,0,.54,0,.81,0c.52,0,1,0,1.56.06l.5,0h2.69c.37,0,.73,0,1.1,0l2.7-.06,1.69,0c.15,0,.3,0,.45,0l1.17,0a.37.37,0,0,1,.35.17.35.35,0,0,1-.05.38.32.32,0,0,1-.36.12l-.2,0a9.29,9.29,0,0,1-1.29-.06,4.53,4.53,0,0,0-.64,0l-1.36,0c-.86,0-1.72,0-2.58,0s-2,0-2.93,0c-.39,0-.77,0-1.16,0-1.15-.08-2.31-.06-3.46,0-.28,0-.55,0-.83.07l-.5,0-.79,0-.27,0c-.46,0-.9,0-1.36.06a7.26,7.26,0,0,1-1.86-.09,2.15,2.15,0,0,0-.62,0,2.55,2.55,0,0,1-1,0,2.54,2.54,0,0,0-.87,0,5.78,5.78,0,0,1-.72,0,2,2,0,0,1-.49-.08.3.3,0,0,1-.14-.5A1,1,0,0,1,.5,4.91L2.62,3.48C3.34,3,4.05,2.46,4.78,2S6.07,1.12,6.72.7L7.41.27A.31.31,0,0,1,7.8.33a.35.35,0,0,1,0,.45.31.31,0,0,1-.11.09,21.42,21.42,0,0,0-1.88,1.2l-.35.23L4,3.27,1.91,4.73,1.53,5Z"/></svg>